<svg width="32" height="27" viewBox="0 0 32 27" fill="none" xmlns="http://www.w3.org/2000/svg">
<path d="M31.0332 1.64921H9.28228C9.11841 1.64921 8.98432 1.7829 8.98432 1.94629V4.02589C8.98432 4.18929 9.11841 4.32297 9.28228 4.32297H31.0332C31.1971 4.32297 31.3312 4.18929 31.3312 4.02589V1.94629C31.3312 1.7829 31.1971 1.64921 31.0332 1.64921ZM31.0332 12.1957H9.28228C9.11841 12.1957 8.98432 12.3294 8.98432 12.4928V14.5724C8.98432 14.7358 9.11841 14.8695 9.28228 14.8695H31.0332C31.1971 14.8695 31.3312 14.7358 31.3312 14.5724V12.4928C31.3312 12.3294 31.1971 12.1957 31.0332 12.1957ZM31.0332 22.7423H9.28228C9.11841 22.7423 8.98432 22.876 8.98432 23.0393V25.1189C8.98432 25.2823 9.11841 25.416 9.28228 25.416H31.0332C31.1971 25.416 31.3312 25.2823 31.3312 25.1189V23.0393C31.3312 22.876 31.1971 22.7423 31.0332 22.7423ZM0.939453 2.98609C0.939453 3.25919 0.993402 3.52961 1.09822 3.78192C1.20303 4.03423 1.35667 4.26348 1.55034 4.45659C1.74402 4.6497 1.97395 4.80288 2.22699 4.90739C2.48004 5.0119 2.75126 5.06569 3.02516 5.06569C3.29906 5.06569 3.57028 5.0119 3.82333 4.90739C4.07638 4.80288 4.3063 4.6497 4.49998 4.45659C4.69365 4.26348 4.84729 4.03423 4.9521 3.78192C5.05692 3.52961 5.11087 3.25919 5.11087 2.98609C5.11087 2.71299 5.05692 2.44257 4.9521 2.19026C4.84729 1.93796 4.69365 1.7087 4.49998 1.51559C4.3063 1.32249 4.07638 1.1693 3.82333 1.06479C3.57028 0.960284 3.29906 0.906494 3.02516 0.906494C2.75126 0.906494 2.48004 0.960284 2.22699 1.06479C1.97395 1.1693 1.74402 1.32249 1.55034 1.51559C1.35667 1.7087 1.20303 1.93796 1.09822 2.19026C0.993402 2.44257 0.939453 2.71299 0.939453 2.98609ZM0.939453 13.5326C0.939453 13.8057 0.993402 14.0761 1.09822 14.3284C1.20303 14.5808 1.35667 14.81 1.55034 15.0031C1.74402 15.1962 1.97395 15.3494 2.22699 15.4539C2.48004 15.5584 2.75126 15.6122 3.02516 15.6122C3.29906 15.6122 3.57028 15.5584 3.82333 15.4539C4.07638 15.3494 4.3063 15.1962 4.49998 15.0031C4.69365 14.81 4.84729 14.5808 4.9521 14.3284C5.05692 14.0761 5.11087 13.8057 5.11087 13.5326C5.11087 13.2595 5.05692 12.9891 4.9521 12.7368C4.84729 12.4845 4.69365 12.2552 4.49998 12.0621C4.3063 11.869 4.07638 11.7158 3.82333 11.6113C3.57028 11.5068 3.29906 11.453 3.02516 11.453C2.75126 11.453 2.48004 11.5068 2.22699 11.6113C1.97395 11.7158 1.74402 11.869 1.55034 12.0621C1.35667 12.2552 1.20303 12.4845 1.09822 12.7368C0.993402 12.9891 0.939453 13.2595 0.939453 13.5326ZM0.939453 24.0791C0.939453 24.3522 0.993402 24.6227 1.09822 24.875C1.20303 25.1273 1.35667 25.3565 1.55034 25.5496C1.74402 25.7428 1.97395 25.8959 2.22699 26.0004C2.48004 26.105 2.75126 26.1587 3.02516 26.1587C3.29906 26.1587 3.57028 26.105 3.82333 26.0004C4.07638 25.8959 4.3063 25.7428 4.49998 25.5496C4.69365 25.3565 4.84729 25.1273 4.9521 24.875C5.05692 24.6227 5.11087 24.3522 5.11087 24.0791C5.11087 23.806 5.05692 23.5356 4.9521 23.2833C4.84729 23.031 4.69365 22.8018 4.49998 22.6087C4.3063 22.4155 4.07638 22.2624 3.82333 22.1579C3.57028 22.0533 3.29906 21.9995 3.02516 21.9995C2.75126 21.9995 2.48004 22.0533 2.22699 22.1579C1.97395 22.2624 1.74402 22.4155 1.55034 22.6087C1.35667 22.8018 1.20303 23.031 1.09822 23.2833C0.993402 23.5356 0.939453 23.806 0.939453 24.0791Z" fill="white"/>
</svg>
