<svg width="34" height="31" viewBox="0 0 34 31" fill="none" xmlns="http://www.w3.org/2000/svg">
<path d="M2.45508 17.2689V6.93888C2.45508 6.28888 4.54508 5.09888 7.95508 5.09888C11.3651 5.09888 13.4551 6.29888 13.4551 6.93888V8.72888C14.1177 8.6265 14.7853 8.55974 15.4551 8.52888V6.93888C15.4551 4.41888 11.6851 3.09888 7.95508 3.09888C4.22508 3.09888 0.455078 4.42888 0.455078 6.93888V17.2689C0.455078 19.4289 3.22508 20.6989 6.35508 21.0289V19.0289C3.91508 18.7089 2.45508 17.8089 2.45508 17.2689Z" fill="#FEFEFE"/>
<path d="M16.4547 9.87878C11.5247 9.87878 7.80469 11.7588 7.80469 14.2588V26.5688C7.80469 29.0688 11.5247 30.9488 16.4547 30.9488C21.3847 30.9488 25.1047 29.0688 25.1047 26.5688V14.2588C25.1047 11.7588 21.3847 9.87878 16.4547 9.87878ZM23.1047 17.5488C22.2547 18.5488 19.6847 19.5488 16.4547 19.5488C15.1036 19.5628 13.7573 19.3878 12.4547 19.0288V20.4888C13.7635 20.8099 15.1071 20.9678 16.4547 20.9588C18.7719 21.0528 21.071 20.5134 23.1047 19.3988V22.5188C22.2547 23.5188 19.6847 24.5188 16.4547 24.5188C15.1032 24.5295 13.7568 24.3511 12.4547 23.9888V25.4488C13.7635 25.7699 15.1071 25.9278 16.4547 25.9188C18.7719 26.0128 21.071 25.4734 23.1047 24.3588V26.6488C23.1047 27.5988 20.4547 29.0288 16.4547 29.0288C12.4547 29.0288 9.80469 27.5988 9.80469 26.6488V14.2588C9.80469 13.3088 12.4547 11.8788 16.4547 11.8788C20.4547 11.8788 23.1047 13.3088 23.1047 14.2588V17.5488Z" fill="#FEFEFE"/>
<path d="M19.4551 6.93877C19.4551 6.60877 20.0051 6.13877 20.9951 5.75877V5.02877C20.9973 4.55542 21.0441 4.08332 21.1351 3.61877C19.0051 4.21877 17.4551 5.32877 17.4551 6.93877V8.52877C18.1248 8.55963 18.7925 8.6264 19.4551 8.72877V6.93877Z" fill="#FEFEFE"/>
<path d="M30.4547 12.2489V17.2489C30.4547 17.7889 28.9947 18.6889 26.5547 18.9789V20.9789C29.6847 20.6589 32.4547 19.3789 32.4547 17.2289V11.3289C31.8373 11.7329 31.1632 12.0429 30.4547 12.2489Z" fill="#FEFEFE"/>
<path d="M28.4551 10.0288C31.2165 10.0288 33.4551 7.79023 33.4551 5.02881C33.4551 2.26738 31.2165 0.0288086 28.4551 0.0288086C25.6937 0.0288086 23.4551 2.26738 23.4551 5.02881C23.4551 7.79023 25.6937 10.0288 28.4551 10.0288Z" fill="#FEFEFE"/>
</svg>
