<svg width="36" height="35" viewBox="0 0 36 35" fill="none" xmlns="http://www.w3.org/2000/svg">
<path d="M9.35547 6.02102C9.35547 5.79559 9.44766 5.57939 9.61175 5.41998C9.77584 5.26057 9.9984 5.17102 10.2305 5.17102H15.4805C15.7125 5.17102 15.9351 5.26057 16.0992 5.41998C16.2633 5.57939 16.3555 5.79559 16.3555 6.02102V11.121C16.3555 11.3465 16.2633 11.5627 16.0992 11.7221C15.9351 11.8815 15.7125 11.971 15.4805 11.971H10.2305C9.9984 11.971 9.77584 11.8815 9.61175 11.7221C9.44766 11.5627 9.35547 11.3465 9.35547 11.121V6.02102ZM20.7305 5.17102C20.4984 5.17102 20.2758 5.26057 20.1117 5.41998C19.9477 5.57939 19.8555 5.79559 19.8555 6.02102V11.121C19.8555 11.3465 19.9477 11.5627 20.1117 11.7221C20.2758 11.8815 20.4984 11.971 20.7305 11.971H25.9805C26.2125 11.971 26.4351 11.8815 26.5992 11.7221C26.7633 11.5627 26.8555 11.3465 26.8555 11.121V6.02102C26.8555 5.79559 26.7633 5.57939 26.5992 5.41998C26.4351 5.26057 26.2125 5.17102 25.9805 5.17102H20.7305ZM21.6055 10.271V6.87102H25.1055V10.271H21.6055ZM4.10547 20.471C4.10547 18.6675 4.84297 16.9379 6.15572 15.6627C7.46848 14.3874 9.24895 13.671 11.1055 13.671H25.1055C26.962 13.671 28.7425 14.3874 30.0552 15.6627C31.368 16.9379 32.1055 18.6675 32.1055 20.471C32.1055 22.2745 31.368 24.0041 30.0552 25.2793C28.7425 26.5546 26.962 27.271 25.1055 27.271H11.1055C9.24895 27.271 7.46848 26.5546 6.15572 25.2793C4.84297 24.0041 4.10547 22.2745 4.10547 20.471ZM12.8555 20.471C12.8555 20.0202 12.6711 19.5878 12.3429 19.2689C12.0147 18.9501 11.5696 18.771 11.1055 18.771C10.6413 18.771 10.1962 18.9501 9.86803 19.2689C9.53984 19.5878 9.35547 20.0202 9.35547 20.471C9.35547 20.9219 9.53984 21.3543 9.86803 21.6731C10.1962 21.9919 10.6413 22.171 11.1055 22.171C11.5696 22.171 12.0147 21.9919 12.3429 21.6731C12.6711 21.3543 12.8555 20.9219 12.8555 20.471ZM19.8555 20.471C19.8555 20.0202 19.6711 19.5878 19.3429 19.2689C19.0147 18.9501 18.5696 18.771 18.1055 18.771C17.6413 18.771 17.1962 18.9501 16.868 19.2689C16.5398 19.5878 16.3555 20.0202 16.3555 20.471C16.3555 20.9219 16.5398 21.3543 16.868 21.6731C17.1962 21.9919 17.6413 22.171 18.1055 22.171C18.5696 22.171 19.0147 21.9919 19.3429 21.6731C19.6711 21.3543 19.8555 20.9219 19.8555 20.471ZM25.1055 22.171C25.5696 22.171 26.0147 21.9919 26.3429 21.6731C26.6711 21.3543 26.8555 20.9219 26.8555 20.471C26.8555 20.0202 26.6711 19.5878 26.3429 19.2689C26.0147 18.9501 25.5696 18.771 25.1055 18.771C24.6413 18.771 24.1962 18.9501 23.868 19.2689C23.5398 19.5878 23.3555 20.0202 23.3555 20.471C23.3555 20.9219 23.5398 21.3543 23.868 21.6731C24.1962 21.9919 24.6413 22.171 25.1055 22.171Z" fill="white"/>
</svg>
