<svg width="32" height="32" viewBox="0 0 32 32" fill="none" xmlns="http://www.w3.org/2000/svg">
<path d="M18.4267 29.3334H13.5734C13.2693 29.3334 12.9743 29.2295 12.7374 29.0389C12.5005 28.8483 12.3358 28.5824 12.2707 28.2854L11.728 25.7734C11.0041 25.4562 10.3177 25.0595 9.68138 24.5907L7.23205 25.3707C6.94213 25.4631 6.62932 25.4536 6.34554 25.3438C6.06177 25.2339 5.82412 25.0303 5.67205 24.7667L3.24005 20.5654C3.08958 20.3015 3.03309 19.9945 3.07984 19.6944C3.12659 19.3943 3.27379 19.1189 3.49738 18.9134L5.39738 17.18C5.31098 16.3948 5.31098 15.6025 5.39738 14.8174L3.49738 13.088C3.27348 12.8824 3.12607 12.6068 3.07931 12.3064C3.03256 12.006 3.08923 11.6986 3.24005 11.4347L5.66672 7.23069C5.81878 6.96711 6.05644 6.76347 6.34021 6.6536C6.62398 6.54373 6.9368 6.53423 7.22672 6.62669L9.67605 7.40669C10.0014 7.16669 10.34 6.94269 10.6894 6.74002C11.0267 6.55069 11.3734 6.37869 11.728 6.22535L12.272 3.71602C12.3368 3.41895 12.5012 3.15294 12.7378 2.96209C12.9745 2.77123 13.2693 2.66701 13.5734 2.66669H18.4267C18.7308 2.66701 19.0256 2.77123 19.2623 2.96209C19.4989 3.15294 19.6633 3.41895 19.7281 3.71602L20.2774 6.22669C20.6507 6.39202 21.0161 6.57735 21.3694 6.78402C21.6987 6.97469 22.0174 7.18402 22.3241 7.40935L24.7747 6.62935C25.0645 6.53724 25.377 6.54691 25.6605 6.65677C25.9439 6.76662 26.1814 6.97006 26.3334 7.23335L28.76 11.4374C29.0694 11.98 28.9627 12.6667 28.5027 13.0894L26.6027 14.8227C26.6891 15.6079 26.6891 16.4002 26.6027 17.1854L28.5027 18.9187C28.9627 19.3427 29.0694 20.028 28.76 20.5707L26.3334 24.7747C26.1813 25.0383 25.9437 25.2419 25.6599 25.3518C25.3761 25.4616 25.0633 25.4711 24.7734 25.3787L22.3241 24.5987C21.6882 25.0672 21.0022 25.4634 20.2787 25.78L19.7281 28.2854C19.663 28.5822 19.4986 28.8479 19.2619 29.0385C19.0252 29.2291 18.7306 29.3331 18.4267 29.3334ZM15.9947 10.6667C14.5802 10.6667 13.2237 11.2286 12.2235 12.2288C11.2233 13.229 10.6614 14.5855 10.6614 16C10.6614 17.4145 11.2233 18.7711 12.2235 19.7713C13.2237 20.7715 14.5802 21.3334 15.9947 21.3334C17.4092 21.3334 18.7658 20.7715 19.766 19.7713C20.7661 18.7711 21.3281 17.4145 21.3281 16C21.3281 14.5855 20.7661 13.229 19.766 12.2288C18.7658 11.2286 17.4092 10.6667 15.9947 10.6667Z" fill="white"/>
</svg>
