<svg width="34" height="33" viewBox="0 0 34 33" fill="none" xmlns="http://www.w3.org/2000/svg">
<path d="M2 18.7308V8.40082C2 7.75082 4.09 6.56082 7.5 6.56082C10.91 6.56082 13 7.76082 13 8.40082V10.1908C13.6626 10.0884 14.3302 10.0217 15 9.99082V8.40082C15 5.88082 11.23 4.56082 7.5 4.56082C3.77 4.56082 0 5.89082 0 8.40082V18.7308C0 20.8908 2.77 22.1608 5.9 22.4908V20.4908C3.46 20.1708 2 19.2708 2 18.7308Z" fill="white"/>
<path d="M22.65 19.0108C21.8 20.0108 19.23 21.0108 16 21.0108C14.6489 21.0248 13.3026 20.8498 12 20.4908V21.9508C13.3088 22.2719 14.6524 22.4298 16 22.4208C18.3172 22.5148 20.6163 21.9755 22.65 20.8608V23.9808C21.8 24.9808 19.23 25.9808 16 25.9808C14.6485 25.9916 13.3021 25.8132 12 25.4508V26.9108C13.3088 27.2319 14.6524 27.3898 16 27.3808C18.3172 27.4748 20.6163 26.9355 22.65 25.8208V28.1108C22.65 29.0608 20 30.4908 16 30.4908C12 30.4908 9.35 29.0608 9.35 28.1108V15.7208C9.35 14.7708 12 13.3408 16 13.3408H16.75C16.5396 12.6943 16.5119 12.0021 16.67 11.3408H16.01C11.08 11.3408 7.36 13.2208 7.36 15.7208V28.0308C7.36 30.5308 11.08 32.4108 16.01 32.4108C20.94 32.4108 24.66 30.5308 24.66 28.0308V15.8908H22.66L22.65 19.0108Z" fill="white"/>
<path d="M20 5.2908C18.25 5.9208 17 6.9708 17 8.4108V9.9908H17.25L20 5.2908Z" fill="white"/>
<path d="M31.68 15.8908H30V18.7308C30 19.2708 28.54 20.1708 26.1 20.4608V22.4608C29.23 22.1408 32 20.8608 32 18.7108V15.8708L31.68 15.8908Z" fill="white"/>
<path d="M24.85 1.63081L19.13 11.4908C18.9969 11.6861 18.9205 11.9145 18.9093 12.1506C18.898 12.3867 18.9524 12.6213 19.0663 12.8284C19.1802 13.0355 19.3492 13.207 19.5546 13.3239C19.76 13.4408 19.9938 13.4986 20.23 13.4908H31.68C31.9162 13.4986 32.15 13.4408 32.3554 13.3239C32.5608 13.207 32.7298 13.0355 32.8437 12.8284C32.9576 12.6213 33.012 12.3867 33.0007 12.1506C32.9895 11.9145 32.9131 11.6861 32.78 11.4908L27.06 1.63081C26.9472 1.43787 26.7858 1.27782 26.592 1.1666C26.3981 1.05538 26.1785 0.996857 25.955 0.996857C25.7315 0.996857 25.5119 1.05538 25.318 1.1666C25.1242 1.27782 24.9628 1.43787 24.85 1.63081Z" fill="white"/>
</svg>
