<svg width="29" height="31" viewBox="0 0 29 31" fill="none" xmlns="http://www.w3.org/2000/svg">
<path d="M26.875 27.9969H25.5V5.49686C25.5 5.09903 25.3551 4.7175 25.0973 4.4362C24.8394 4.15489 24.4897 3.99686 24.125 3.99686C23.7603 3.99686 23.4106 4.15489 23.1527 4.4362C22.8949 4.7175 22.75 5.09903 22.75 5.49686V27.9969H20V11.4969C20 11.099 19.8551 10.7175 19.5973 10.4362C19.3394 10.1549 18.9897 9.99686 18.625 9.99686C18.2603 9.99686 17.9106 10.1549 17.6527 10.4362C17.3949 10.7175 17.25 11.099 17.25 11.4969V27.9969H14.5V17.4969C14.5 17.099 14.3551 16.7175 14.0973 16.4362C13.8394 16.1549 13.4897 15.9969 13.125 15.9969C12.7603 15.9969 12.4106 16.1549 12.1527 16.4362C11.8949 16.7175 11.75 17.099 11.75 17.4969V27.9969H9V23.4969C9 23.099 8.85514 22.7175 8.59728 22.4362C8.33941 22.1549 7.98968 21.9969 7.625 21.9969C7.26033 21.9969 6.91059 22.1549 6.65273 22.4362C6.39487 22.7175 6.25 23.099 6.25 23.4969V27.9969H3.5V2.49686C3.5 2.09903 3.35514 1.7175 3.09728 1.4362C2.83941 1.15489 2.48968 0.996857 2.125 0.996857C1.76033 0.996857 1.41059 1.15489 1.15273 1.4362C0.894869 1.7175 0.750004 2.09903 0.750004 2.49686V29.4969C0.750004 29.8947 0.894869 30.2762 1.15273 30.5575C1.41059 30.8388 1.76033 30.9969 2.125 30.9969H26.875C27.2397 30.9969 27.5894 30.8388 27.8473 30.5575C28.1051 30.2762 28.25 29.8947 28.25 29.4969C28.25 29.099 28.1051 28.7175 27.8473 28.4362C27.5894 28.1549 27.2397 27.9969 26.875 27.9969Z" fill="#E9E9E9"/>
</svg>
