<svg width="33" height="32" viewBox="0 0 33 32" fill="none" xmlns="http://www.w3.org/2000/svg">
<path d="M2 18.2369V7.90686C2 7.25686 4.09 6.06686 7.5 6.06686C10.91 6.06686 13 7.26686 13 7.90686V9.69686C13.6626 9.59449 14.3302 9.52772 15 9.49686V7.90686C15 5.38686 11.23 4.06686 7.5 4.06686C3.77 4.06686 0 5.39686 0 7.90686V18.2369C0 20.3969 2.77 21.6669 5.9 21.9969V19.9969C3.46 19.6769 2 18.7769 2 18.2369Z" fill="#FEFEFE"/>
<path d="M16 10.8469C11.07 10.8469 7.35 12.7269 7.35 15.2269V27.5369C7.35 30.0369 11.07 31.9169 16 31.9169C20.93 31.9169 24.65 30.0369 24.65 27.5369V15.2269C24.65 12.7269 20.93 10.8469 16 10.8469ZM22.65 18.5169C21.8 19.5169 19.23 20.5169 16 20.5169C14.6489 20.5309 13.3026 20.3558 12 19.9969V21.4569C13.3088 21.778 14.6524 21.9358 16 21.9269C18.3172 22.0208 20.6163 21.4815 22.65 20.3669V23.4869C21.8 24.4869 19.23 25.4869 16 25.4869C14.6485 25.4976 13.3021 25.3192 12 24.9569V26.4169C13.3088 26.738 14.6524 26.8958 16 26.8869C18.3172 26.9808 20.6163 26.4415 22.65 25.3269V27.6169C22.65 28.5669 20 29.9969 16 29.9969C12 29.9969 9.35 28.5669 9.35 27.6169V15.2269C9.35 14.2769 12 12.8469 16 12.8469C20 12.8469 22.65 14.2769 22.65 15.2269V18.5169Z" fill="#FEFEFE"/>
<path d="M19 7.90685C19 7.57685 19.55 7.10685 20.54 6.72685V5.99685C20.5422 5.52349 20.5891 5.0514 20.68 4.58685C18.55 5.18685 17 6.29685 17 7.90685V9.49685C17.6698 9.52771 18.3374 9.59448 19 9.69685V7.90685Z" fill="#FEFEFE"/>
<path d="M30 13.2168V18.2168C30 18.7568 28.54 19.6568 26.1 19.9468V21.9468C29.23 21.6268 32 20.3468 32 18.1968V12.2968C31.3826 12.7009 30.7085 13.0109 30 13.2168Z" fill="#FEFEFE"/>
<path d="M28 10.9969C30.7614 10.9969 33 8.75828 33 5.99686C33 3.23543 30.7614 0.996857 28 0.996857C25.2386 0.996857 23 3.23543 23 5.99686C23 8.75828 25.2386 10.9969 28 10.9969Z" fill="#FEFEFE"/>
</svg>
