<svg width="22" height="29" viewBox="0 0 22 29" fill="none" xmlns="http://www.w3.org/2000/svg">
<path d="M5.5 10.9969C5.10218 10.9969 4.72064 11.1549 4.43934 11.4362C4.15804 11.7175 4 12.099 4 12.4969V21.4969C4 21.8947 4.15804 22.2762 4.43934 22.5575C4.72064 22.8388 5.10218 22.9969 5.5 22.9969C5.89782 22.9969 6.27936 22.8388 6.56066 22.5575C6.84196 22.2762 7 21.8947 7 21.4969V12.4969C7 12.099 6.84196 11.7175 6.56066 11.4362C6.27936 11.1549 5.89782 10.9969 5.5 10.9969ZM9.5 14.4969C9.5 14.099 9.65804 13.7175 9.93934 13.4362C10.2206 13.1549 10.6022 12.9969 11 12.9969C11.3978 12.9969 11.7794 13.1549 12.0607 13.4362C12.342 13.7175 12.5 14.099 12.5 14.4969V21.4969C12.5 21.8947 12.342 22.2762 12.0607 22.5575C11.7794 22.8388 11.3978 22.9969 11 22.9969C10.6022 22.9969 10.2206 22.8388 9.93934 22.5575C9.65804 22.2762 9.5 21.8947 9.5 21.4969V14.4969ZM16.5 16.9969C16.1022 16.9969 15.7206 17.1549 15.4393 17.4362C15.158 17.7175 15 18.099 15 18.4969V21.4969C15 21.8947 15.158 22.2762 15.4393 22.5575C15.7206 22.8388 16.1022 22.9969 16.5 22.9969C16.8978 22.9969 17.2794 22.8388 17.5607 22.5575C17.842 22.2762 18 21.8947 18 21.4969V18.4969C18 18.099 17.842 17.7175 17.5607 17.4362C17.2794 17.1549 16.8978 16.9969 16.5 16.9969ZM14 0.996857C15.306 0.996857 16.418 1.83186 16.83 2.99686H18.5C19.4283 2.99686 20.3185 3.36561 20.9749 4.02198C21.6313 4.67836 22 5.5686 22 6.49686V25.4969C22 26.4251 21.6313 27.3154 20.9749 27.9717C20.3185 28.6281 19.4283 28.9969 18.5 28.9969H3.5C2.57174 28.9969 1.6815 28.6281 1.02513 27.9717C0.368749 27.3154 0 26.4251 0 25.4969V6.49686C0 5.5686 0.368749 4.67836 1.02513 4.02198C1.6815 3.36561 2.57174 2.99686 3.5 2.99686H5.17C5.37701 2.41178 5.76032 1.90528 6.26715 1.5471C6.77397 1.18892 7.37938 0.996678 8 0.996857H14ZM8 2.99686C7.73478 2.99686 7.48043 3.10221 7.29289 3.28975C7.10536 3.47729 7 3.73164 7 3.99686C7 4.26207 7.10536 4.51643 7.29289 4.70396C7.48043 4.8915 7.73478 4.99686 8 4.99686H14C14.2652 4.99686 14.5196 4.8915 14.7071 4.70396C14.8946 4.51643 15 4.26207 15 3.99686C15 3.73164 14.8946 3.47729 14.7071 3.28975C14.5196 3.10221 14.2652 2.99686 14 2.99686H8ZM3.5 4.99686C3.10218 4.99686 2.72064 5.15489 2.43934 5.4362C2.15804 5.7175 2 6.09903 2 6.49686V25.4969C2 25.8947 2.15804 26.2762 2.43934 26.5575C2.72064 26.8388 3.10218 26.9969 3.5 26.9969H18.5C18.8978 26.9969 19.2794 26.8388 19.5607 26.5575C19.842 26.2762 20 25.8947 20 25.4969V6.49686C20 6.09903 19.842 5.7175 19.5607 5.4362C19.2794 5.15489 18.8978 4.99686 18.5 4.99686H16.83C16.623 5.58193 16.2397 6.08844 15.7329 6.44662C15.226 6.8048 14.6206 6.99704 14 6.99686H8C7.37938 6.99704 6.77397 6.8048 6.26715 6.44662C5.76032 6.08844 5.37701 5.58193 5.17 4.99686H3.5Z" fill="white"/>
</svg>
