<svg width="30" height="28" viewBox="0 0 30 28" fill="none" xmlns="http://www.w3.org/2000/svg">
<path d="M23.625 19.2486H6.39375C6.1875 19.2486 6.01875 19.4455 6.01875 19.6861L6.01406 22.3111C6.01406 22.5518 6.18281 22.7486 6.38906 22.7486H23.625C23.8312 22.7486 24 22.5518 24 22.3111V19.6861C24 19.4455 23.8312 19.2486 23.625 19.2486ZM23.625 24.4986H6.37969C6.17344 24.4986 6.00469 24.6955 6.00469 24.9361L6 27.5611C6 27.8018 6.16875 27.9986 6.375 27.9986H23.625C23.8312 27.9986 24 27.8018 24 27.5611V24.9361C24 24.6955 23.8312 24.4986 23.625 24.4986ZM23.625 13.9986H6.40313C6.19688 13.9986 6.02813 14.1955 6.02813 14.4361L6.02344 17.0611C6.02344 17.3018 6.19219 17.4986 6.39844 17.4986H23.625C23.8312 17.4986 24 17.3018 24 17.0611V14.4361C24 14.1955 23.8312 13.9986 23.625 13.9986ZM28.6172 6.39707L15.8625 0.20098C15.5883 0.0682966 15.2945 0 14.9977 0C14.7009 0 14.407 0.0682966 14.1328 0.20098L1.38281 6.39707C0.548438 6.80723 0 7.75879 0 8.81973V27.5611C0 27.8018 0.16875 27.9986 0.375 27.9986H4.125C4.33125 27.9986 4.5 27.8018 4.5 27.5611V13.9986C4.5 13.0361 5.18438 12.2486 6.02813 12.2486H23.9719C24.8156 12.2486 25.5 13.0361 25.5 13.9986V27.5611C25.5 27.8018 25.6688 27.9986 25.875 27.9986H29.625C29.8312 27.9986 30 27.8018 30 27.5611V8.81973C30 7.75879 29.4516 6.80723 28.6172 6.39707Z" fill="#E9E9E9"/>
</svg>
