<svg width="32" height="33" viewBox="0 0 32 33" fill="none" xmlns="http://www.w3.org/2000/svg">
<path d="M2 28.875C2 28.875 0 28.875 0 26.8125C0 24.75 2 18.5625 12 18.5625C22 18.5625 24 24.75 24 26.8125C24 28.875 22 28.875 22 28.875H2ZM12 16.5C13.5913 16.5 15.1174 15.8481 16.2426 14.6877C17.3679 13.5273 18 11.9535 18 10.3125C18 8.67147 17.3679 7.09766 16.2426 5.93728C15.1174 4.7769 13.5913 4.125 12 4.125C10.4087 4.125 8.88258 4.7769 7.75736 5.93728C6.63214 7.09766 6 8.67147 6 10.3125C6 11.9535 6.63214 13.5273 7.75736 14.6877C8.88258 15.8481 10.4087 16.5 12 16.5Z" fill="#E9E9E9"/>
<path fill-rule="evenodd" clip-rule="evenodd" d="M27 10.3125C27.2652 10.3125 27.5196 10.4211 27.7071 10.6145C27.8946 10.8079 28 11.0702 28 11.3438V14.4375H31C31.2652 14.4375 31.5196 14.5461 31.7071 14.7395C31.8946 14.9329 32 15.1952 32 15.4688C32 15.7423 31.8946 16.0046 31.7071 16.198C31.5196 16.3914 31.2652 16.5 31 16.5H28V19.5938C28 19.8673 27.8946 20.1296 27.7071 20.323C27.5196 20.5164 27.2652 20.625 27 20.625C26.7348 20.625 26.4804 20.5164 26.2929 20.323C26.1054 20.1296 26 19.8673 26 19.5938V16.5H23C22.7348 16.5 22.4804 16.3914 22.2929 16.198C22.1054 16.0046 22 15.7423 22 15.4688C22 15.1952 22.1054 14.9329 22.2929 14.7395C22.4804 14.5461 22.7348 14.4375 23 14.4375H26V11.3438C26 11.0702 26.1054 10.8079 26.2929 10.6145C26.4804 10.4211 26.7348 10.3125 27 10.3125Z" fill="#E9E9E9"/>
</svg>
