<svg width="35" height="35" viewBox="0 0 60 60" fill="none" xmlns="http://www.w3.org/2000/svg">
	<path d="M3.75 52.5C3.75 52.5 0 52.5 0 48.75C0 45 3.75 33.75 22.5 33.75C41.25 33.75 45 45 45 48.75C45 52.5 41.25 52.5 41.25 52.5H3.75ZM22.5 30C25.4837 30 28.3452 28.8147 30.455 26.705C32.5647 24.5952 33.75 21.7337 33.75 18.75C33.75 15.7663 32.5647 12.9048 30.455 10.795C28.3452 8.68526 25.4837 7.5 22.5 7.5C19.5163 7.5 16.6548 8.68526 14.545 10.795C12.4353 12.9048 11.25 15.7663 11.25 18.75C11.25 21.7337 12.4353 24.5952 14.545 26.705C16.6548 28.8147 19.5163 30 22.5 30Z" fill="#fff"/>
	<path fill-rule="evenodd" clip-rule="evenodd" d="M50.625 18.75C51.1223 18.75 51.5992 18.9475 51.9508 19.2992C52.3025 19.6508 52.5 20.1277 52.5 20.625V26.25H58.125C58.6223 26.25 59.0992 26.4475 59.4508 26.7992C59.8025 27.1508 60 27.6277 60 28.125C60 28.6223 59.8025 29.0992 59.4508 29.4508C59.0992 29.8025 58.6223 30 58.125 30H52.5V35.625C52.5 36.1223 52.3025 36.5992 51.9508 36.9508C51.5992 37.3025 51.1223 37.5 50.625 37.5C50.1277 37.5 49.6508 37.3025 49.2992 36.9508C48.9475 36.5992 48.75 36.1223 48.75 35.625V30H43.125C42.6277 30 42.1508 29.8025 41.7992 29.4508C41.4475 29.0992 41.25 28.6223 41.25 28.125C41.25 27.6277 41.4475 27.1508 41.7992 26.7992C42.1508 26.4475 42.6277 26.25 43.125 26.25H48.75V20.625C48.75 20.1277 48.9475 19.6508 49.2992 19.2992C49.6508 18.9475 50.1277 18.75 50.625 18.75Z" fill="#fff"/>
</svg>