<svg width="29" height="32" viewBox="0 0 29 32" fill="none" xmlns="http://www.w3.org/2000/svg">
<path d="M28.887 1.2072C28.7436 0.731425 28.4693 0.353348 28.1241 0.155767C27.9543 0.0559963 27.7719 0.00307638 27.5873 0H20.5236C20.1489 0 19.7896 0.20514 19.5246 0.57029C19.2597 0.93544 19.1108 1.43069 19.1108 1.94709C19.1108 2.46349 19.2597 2.95874 19.5246 3.32389C19.7896 3.68904 20.1489 3.89418 20.5236 3.89418H24.1826L16.2854 14.7784L11.6375 8.35301C11.5061 8.17052 11.3499 8.02567 11.1777 7.92682C11.0056 7.82796 10.8209 7.77707 10.6344 7.77707C10.4479 7.77707 10.2633 7.82796 10.0911 7.92682C9.91897 8.02567 9.76272 8.17052 9.63138 8.35301L1.15496 20.0356C1.02255 20.2166 0.917452 20.4319 0.845729 20.6692C0.774006 20.9065 0.73708 21.1609 0.73708 21.418C0.73708 21.675 0.774006 21.9295 0.845729 22.1668C0.917452 22.4041 1.02255 22.6194 1.15496 22.8004C1.2863 22.9829 1.44255 23.1278 1.6147 23.2266C1.78686 23.3255 1.97151 23.3764 2.15801 23.3764C2.34451 23.3764 2.52916 23.3255 2.70131 23.2266C2.87347 23.1278 3.02972 22.9829 3.16105 22.8004L10.6344 12.4808L15.2823 18.9062C15.4137 19.0887 15.5699 19.2336 15.7421 19.3324C15.9142 19.4313 16.0989 19.4822 16.2854 19.4822C16.4719 19.4822 16.6565 19.4313 16.8287 19.3324C17.0008 19.2336 17.1571 19.0887 17.2884 18.9062L26.1745 6.63958V11.6825C26.1745 12.1989 26.3234 12.6942 26.5883 13.0593C26.8532 13.4245 27.2126 13.6296 27.5873 13.6296C27.9619 13.6296 28.3213 13.4245 28.5862 13.0593C28.8512 12.6942 29 12.1989 29 11.6825V1.94709C28.9978 1.69265 28.9594 1.44128 28.887 1.2072Z" fill="#E9E9E9"/>
<path d="M0 30.4762C0 29.6346 0.495003 28.9524 1.10562 28.9524H27.6405C28.2511 28.9524 28.7461 29.6346 28.7461 30.4762C28.7461 31.3178 28.2511 32 27.6405 32H1.10562C0.495004 32 0 31.3178 0 30.4762Z" fill="#E9E9E9"/>
</svg>
