<svg width="35" height="35" viewBox="0 0 66 65" fill="none" xmlns="http://www.w3.org/2000/svg">
	<path d="M55.6875 8.125H2.0625V48.75H55.6875V8.125ZM51.5625 44.6875H6.1875V12.1875H51.5625V44.6875Z" fill="#fff"/>
	<path d="M59.8125 18.2812V52.8125H12.375V56.875H63.9375V18.2812H59.8125Z" fill="#fff"/>
	<path d="M28.875 38.3982C33.9926 38.3982 38.1562 33.9375 38.1562 28.4545C38.1562 22.9715 33.9926 18.5107 28.875 18.5107C23.7574 18.5107 19.5938 22.9714 19.5938 28.4545C19.5938 33.9376 23.7574 38.3982 28.875 38.3982ZM28.875 22.5732C31.7182 22.5732 34.0312 25.2116 34.0312 28.4545C34.0312 31.6974 31.7182 34.3357 28.875 34.3357C26.0318 34.3357 23.7188 31.6974 23.7188 28.4545C23.7188 25.2116 26.0318 22.5732 28.875 22.5732Z" fill="#fff"/>
	<path d="M10.3125 17.2656H14.4375V39.6094H10.3125V17.2656Z" fill="#fff"/>
	<path d="M43.3125 17.2656H47.4375V39.6094H43.3125V17.2656Z" fill="#fff"/>
</svg>