<svg width="35" height="35" viewBox="0 0 35 35" fill="none" xmlns="http://www.w3.org/2000/svg">
<path d="M17.5 32.0834C16.7263 32.0796 15.9851 31.7715 15.4367 31.2258C14.8882 30.68 14.5764 29.9404 14.5688 29.1667H20.4021C20.4052 29.5566 20.3309 29.9432 20.1834 30.3042C19.9948 30.7369 19.706 31.1187 19.3409 31.4179C18.9758 31.7171 18.5447 31.9252 18.0834 32.025H18.0148C17.8454 32.0603 17.6731 32.0798 17.5 32.0834ZM29.1667 27.7084H5.83337V24.7917L8.75004 23.3334V15.3125C8.67321 13.255 9.13786 11.2133 10.0975 9.39169C10.5698 8.55645 11.2138 7.83085 11.987 7.26273C12.7603 6.69462 13.6452 6.29692 14.5834 6.09585V2.91669H20.4167V6.09585C24.1777 6.99127 26.25 10.2638 26.25 15.3125V23.3334L29.1667 24.7917V27.7084Z" fill="white"/>
</svg>
